<svg width="1440" height="35" viewBox="0 0 1440 35" fill="none" xmlns="http://www.w3.org/2000/svg">
<g opacity="0.7">
<path d="M0.205384 0H-3.20508V6.36641H0.205384V0Z" fill="#B7B7B7"/>
<path d="M12.8512 0H9.66211V12.7226H12.8512V0Z" fill="#B7B7B7"/>
<path d="M0.215442 9.54443H-3.20508V25.4452H0.215442V9.54443Z" fill="#B7B7B7"/>
<path d="M16.0001 15.9109V19.0891H6.51315V35H3.36426V0H6.51315V15.9109H16.0001Z" fill="#B7B7B7"/>
<path d="M0.205384 28.6338H-3.20508V35.0002H0.205384V28.6338Z" fill="#B7B7B7"/>
<path d="M12.8512 22.2671H9.66211V25.4452H12.8512V22.2671Z" fill="#B7B7B7"/>
<path d="M12.8512 28.6338H9.66211V35.0002H12.8512V28.6338Z" fill="#B7B7B7"/>
</g>
<path d="M39.2054 0H35.7949V6.36641H39.2054V0Z" fill="#B7B7B7"/>
<path d="M20 12.7327H26.338V9.54443H23.159H20V12.7327Z" fill="#B7B7B7"/>
<path d="M20 28.6338V31.8119H26.338V28.6338H23.159H20Z" fill="#B7B7B7"/>
<path d="M51.8512 0H48.6621V12.7226H51.8512V0Z" fill="#B7B7B7"/>
<path d="M32.6459 35H29.4869V25.4555H23.159V22.2672H29.4869V19.0891H20V15.9109H29.4869V6.36642H23.159V3.1883H29.4869V0H32.6459V35Z" fill="#B7B7B7"/>
<path d="M39.2154 9.54443H35.7949V25.4452H39.2154V9.54443Z" fill="#B7B7B7"/>
<path d="M55.0001 15.9109V19.0891H45.5132V35H42.3643V0H45.5132V15.9109H55.0001Z" fill="#B7B7B7"/>
<path d="M39.2054 28.6338H35.7949V35.0002H39.2054V28.6338Z" fill="#B7B7B7"/>
<path d="M51.8512 22.2671H48.6621V25.4452H51.8512V22.2671Z" fill="#B7B7B7"/>
<path d="M51.8512 28.6338H48.6621V35.0002H51.8512V28.6338Z" fill="#B7B7B7"/>
<g opacity="0.7">
<path d="M78.2054 0H74.7949V6.36641H78.2054V0Z" fill="#B7B7B7"/>
<path d="M59 12.7327H65.338V9.54443H62.159H59V12.7327Z" fill="#B7B7B7"/>
<path d="M59 28.6338V31.8119H65.338V28.6338H62.159H59Z" fill="#B7B7B7"/>
<path d="M90.8512 0H87.6621V12.7226H90.8512V0Z" fill="#B7B7B7"/>
<path d="M71.6459 35H68.4869V25.4555H62.159V22.2672H68.4869V19.0891H59V15.9109H68.4869V6.36642H62.159V3.1883H68.4869V0H71.6459V35Z" fill="#B7B7B7"/>
<path d="M78.2154 9.54443H74.7949V25.4452H78.2154V9.54443Z" fill="#B7B7B7"/>
<path d="M94.0001 15.9109V19.0891H84.5132V35H81.3643V0H84.5132V15.9109H94.0001Z" fill="#B7B7B7"/>
<path d="M78.2054 28.6338H74.7949V35.0002H78.2054V28.6338Z" fill="#B7B7B7"/>
<path d="M90.8512 22.2671H87.6621V25.4452H90.8512V22.2671Z" fill="#B7B7B7"/>
<path d="M90.8512 28.6338H87.6621V35.0002H90.8512V28.6338Z" fill="#B7B7B7"/>
</g>
<path d="M117.205 0H113.795V6.36641H117.205V0Z" fill="#B7B7B7"/>
<path d="M98 12.7327H104.338V9.54443H101.159H98V12.7327Z" fill="#B7B7B7"/>
<path d="M98 28.6338V31.8119H104.338V28.6338H101.159H98Z" fill="#B7B7B7"/>
<path d="M129.851 0H126.662V12.7226H129.851V0Z" fill="#B7B7B7"/>
<path d="M110.646 35H107.487V25.4555H101.159V22.2672H107.487V19.0891H98V15.9109H107.487V6.36642H101.159V3.1883H107.487V0H110.646V35Z" fill="#B7B7B7"/>
<path d="M117.215 9.54443H113.795V25.4452H117.215V9.54443Z" fill="#B7B7B7"/>
<path d="M133 15.9109V19.0891H123.513V35H120.364V0H123.513V15.9109H133Z" fill="#B7B7B7"/>
<path d="M117.205 28.6338H113.795V35.0002H117.205V28.6338Z" fill="#B7B7B7"/>
<path d="M129.851 22.2671H126.662V25.4452H129.851V22.2671Z" fill="#B7B7B7"/>
<path d="M129.851 28.6338H126.662V35.0002H129.851V28.6338Z" fill="#B7B7B7"/>
<g opacity="0.7">
<path d="M156.205 0H152.795V6.36641H156.205V0Z" fill="#B7B7B7"/>
<path d="M137 12.7327H143.338V9.54443H140.159H137V12.7327Z" fill="#B7B7B7"/>
<path d="M137 28.6338V31.8119H143.338V28.6338H140.159H137Z" fill="#B7B7B7"/>
<path d="M168.851 0H165.662V12.7226H168.851V0Z" fill="#B7B7B7"/>
<path d="M149.646 35H146.487V25.4555H140.159V22.2672H146.487V19.0891H137V15.9109H146.487V6.36642H140.159V3.1883H146.487V0H149.646V35Z" fill="#B7B7B7"/>
<path d="M156.215 9.54443H152.795V25.4452H156.215V9.54443Z" fill="#B7B7B7"/>
<path d="M172 15.9109V19.0891H162.513V35H159.364V0H162.513V15.9109H172Z" fill="#B7B7B7"/>
<path d="M156.205 28.6338H152.795V35.0002H156.205V28.6338Z" fill="#B7B7B7"/>
<path d="M168.851 22.2671H165.662V25.4452H168.851V22.2671Z" fill="#B7B7B7"/>
<path d="M168.851 28.6338H165.662V35.0002H168.851V28.6338Z" fill="#B7B7B7"/>
</g>
<path d="M195.205 0H191.795V6.36641H195.205V0Z" fill="#B7B7B7"/>
<path d="M176 12.7327H182.338V9.54443H179.159H176V12.7327Z" fill="#B7B7B7"/>
<path d="M176 28.6338V31.8119H182.338V28.6338H179.159H176Z" fill="#B7B7B7"/>
<path d="M207.851 0H204.662V12.7226H207.851V0Z" fill="#B7B7B7"/>
<path d="M188.646 35H185.487V25.4555H179.159V22.2672H185.487V19.0891H176V15.9109H185.487V6.36642H179.159V3.1883H185.487V0H188.646V35Z" fill="#B7B7B7"/>
<path d="M195.215 9.54443H191.795V25.4452H195.215V9.54443Z" fill="#B7B7B7"/>
<path d="M211 15.9109V19.0891H201.513V35H198.364V0H201.513V15.9109H211Z" fill="#B7B7B7"/>
<path d="M195.205 28.6338H191.795V35.0002H195.205V28.6338Z" fill="#B7B7B7"/>
<path d="M207.851 22.2671H204.662V25.4452H207.851V22.2671Z" fill="#B7B7B7"/>
<path d="M207.851 28.6338H204.662V35.0002H207.851V28.6338Z" fill="#B7B7B7"/>
<g opacity="0.7">
<path d="M234.205 0H230.795V6.36641H234.205V0Z" fill="#B7B7B7"/>
<path d="M215 12.7327H221.338V9.54443H218.159H215V12.7327Z" fill="#B7B7B7"/>
<path d="M215 28.6338V31.8119H221.338V28.6338H218.159H215Z" fill="#B7B7B7"/>
<path d="M246.851 0H243.662V12.7226H246.851V0Z" fill="#B7B7B7"/>
<path d="M227.646 35H224.487V25.4555H218.159V22.2672H224.487V19.0891H215V15.9109H224.487V6.36642H218.159V3.1883H224.487V0H227.646V35Z" fill="#B7B7B7"/>
<path d="M234.215 9.54443H230.795V25.4452H234.215V9.54443Z" fill="#B7B7B7"/>
<path d="M250 15.9109V19.0891H240.513V35H237.364V0H240.513V15.9109H250Z" fill="#B7B7B7"/>
<path d="M234.205 28.6338H230.795V35.0002H234.205V28.6338Z" fill="#B7B7B7"/>
<path d="M246.851 22.2671H243.662V25.4452H246.851V22.2671Z" fill="#B7B7B7"/>
<path d="M246.851 28.6338H243.662V35.0002H246.851V28.6338Z" fill="#B7B7B7"/>
</g>
<path d="M273.205 0H269.795V6.36641H273.205V0Z" fill="#B7B7B7"/>
<path d="M254 12.7327H260.338V9.54443H257.159H254V12.7327Z" fill="#B7B7B7"/>
<path d="M254 28.6338V31.8119H260.338V28.6338H257.159H254Z" fill="#B7B7B7"/>
<path d="M285.851 0H282.662V12.7226H285.851V0Z" fill="#B7B7B7"/>
<path d="M266.646 35H263.487V25.4555H257.159V22.2672H263.487V19.0891H254V15.9109H263.487V6.36642H257.159V3.1883H263.487V0H266.646V35Z" fill="#B7B7B7"/>
<path d="M273.215 9.54443H269.795V25.4452H273.215V9.54443Z" fill="#B7B7B7"/>
<path d="M289 15.9109V19.0891H279.513V35H276.364V0H279.513V15.9109H289Z" fill="#B7B7B7"/>
<path d="M273.205 28.6338H269.795V35.0002H273.205V28.6338Z" fill="#B7B7B7"/>
<path d="M285.851 22.2671H282.662V25.4452H285.851V22.2671Z" fill="#B7B7B7"/>
<path d="M285.851 28.6338H282.662V35.0002H285.851V28.6338Z" fill="#B7B7B7"/>
<g opacity="0.7">
<path d="M312.205 0H308.795V6.36641H312.205V0Z" fill="#B7B7B7"/>
<path d="M293 12.7327H299.338V9.54443H296.159H293V12.7327Z" fill="#B7B7B7"/>
<path d="M293 28.6338V31.8119H299.338V28.6338H296.159H293Z" fill="#B7B7B7"/>
<path d="M324.851 0H321.662V12.7226H324.851V0Z" fill="#B7B7B7"/>
<path d="M305.646 35H302.487V25.4555H296.159V22.2672H302.487V19.0891H293V15.9109H302.487V6.36642H296.159V3.1883H302.487V0H305.646V35Z" fill="#B7B7B7"/>
<path d="M312.215 9.54443H308.795V25.4452H312.215V9.54443Z" fill="#B7B7B7"/>
<path d="M328 15.9109V19.0891H318.513V35H315.364V0H318.513V15.9109H328Z" fill="#B7B7B7"/>
<path d="M312.205 28.6338H308.795V35.0002H312.205V28.6338Z" fill="#B7B7B7"/>
<path d="M324.851 22.2671H321.662V25.4452H324.851V22.2671Z" fill="#B7B7B7"/>
<path d="M324.851 28.6338H321.662V35.0002H324.851V28.6338Z" fill="#B7B7B7"/>
</g>
<path d="M351.205 0H347.795V6.36641H351.205V0Z" fill="#B7B7B7"/>
<path d="M332 12.7327H338.338V9.54443H335.159H332V12.7327Z" fill="#B7B7B7"/>
<path d="M332 28.6338V31.8119H338.338V28.6338H335.159H332Z" fill="#B7B7B7"/>
<path d="M363.851 0H360.662V12.7226H363.851V0Z" fill="#B7B7B7"/>
<path d="M344.646 35H341.487V25.4555H335.159V22.2672H341.487V19.0891H332V15.9109H341.487V6.36642H335.159V3.1883H341.487V0H344.646V35Z" fill="#B7B7B7"/>
<path d="M351.215 9.54443H347.795V25.4452H351.215V9.54443Z" fill="#B7B7B7"/>
<path d="M367 15.9109V19.0891H357.513V35H354.364V0H357.513V15.9109H367Z" fill="#B7B7B7"/>
<path d="M351.205 28.6338H347.795V35.0002H351.205V28.6338Z" fill="#B7B7B7"/>
<path d="M363.851 22.2671H360.662V25.4452H363.851V22.2671Z" fill="#B7B7B7"/>
<path d="M363.851 28.6338H360.662V35.0002H363.851V28.6338Z" fill="#B7B7B7"/>
<g opacity="0.7">
<path d="M390.205 0H386.795V6.36641H390.205V0Z" fill="#B7B7B7"/>
<path d="M371 12.7327H377.338V9.54443H374.159H371V12.7327Z" fill="#B7B7B7"/>
<path d="M371 28.6338V31.8119H377.338V28.6338H374.159H371Z" fill="#B7B7B7"/>
<path d="M402.851 0H399.662V12.7226H402.851V0Z" fill="#B7B7B7"/>
<path d="M383.646 35H380.487V25.4555H374.159V22.2672H380.487V19.0891H371V15.9109H380.487V6.36642H374.159V3.1883H380.487V0H383.646V35Z" fill="#B7B7B7"/>
<path d="M390.215 9.54443H386.795V25.4452H390.215V9.54443Z" fill="#B7B7B7"/>
<path d="M406 15.9109V19.0891H396.513V35H393.364V0H396.513V15.9109H406Z" fill="#B7B7B7"/>
<path d="M390.205 28.6338H386.795V35.0002H390.205V28.6338Z" fill="#B7B7B7"/>
<path d="M402.851 22.2671H399.662V25.4452H402.851V22.2671Z" fill="#B7B7B7"/>
<path d="M402.851 28.6338H399.662V35.0002H402.851V28.6338Z" fill="#B7B7B7"/>
</g>
<path d="M429.205 0H425.795V6.36641H429.205V0Z" fill="#B7B7B7"/>
<path d="M410 12.7327H416.338V9.54443H413.159H410V12.7327Z" fill="#B7B7B7"/>
<path d="M410 28.6338V31.8119H416.338V28.6338H413.159H410Z" fill="#B7B7B7"/>
<path d="M441.851 0H438.662V12.7226H441.851V0Z" fill="#B7B7B7"/>
<path d="M422.646 35H419.487V25.4555H413.159V22.2672H419.487V19.0891H410V15.9109H419.487V6.36642H413.159V3.1883H419.487V0H422.646V35Z" fill="#B7B7B7"/>
<path d="M429.215 9.54443H425.795V25.4452H429.215V9.54443Z" fill="#B7B7B7"/>
<path d="M445 15.9109V19.0891H435.513V35H432.364V0H435.513V15.9109H445Z" fill="#B7B7B7"/>
<path d="M429.205 28.6338H425.795V35.0002H429.205V28.6338Z" fill="#B7B7B7"/>
<path d="M441.851 22.2671H438.662V25.4452H441.851V22.2671Z" fill="#B7B7B7"/>
<path d="M441.851 28.6338H438.662V35.0002H441.851V28.6338Z" fill="#B7B7B7"/>
<g opacity="0.7">
<path d="M468.205 0H464.795V6.36641H468.205V0Z" fill="#B7B7B7"/>
<path d="M449 12.7327H455.338V9.54443H452.159H449V12.7327Z" fill="#B7B7B7"/>
<path d="M449 28.6338V31.8119H455.338V28.6338H452.159H449Z" fill="#B7B7B7"/>
<path d="M480.851 0H477.662V12.7226H480.851V0Z" fill="#B7B7B7"/>
<path d="M461.646 35H458.487V25.4555H452.159V22.2672H458.487V19.0891H449V15.9109H458.487V6.36642H452.159V3.1883H458.487V0H461.646V35Z" fill="#B7B7B7"/>
<path d="M468.215 9.54443H464.795V25.4452H468.215V9.54443Z" fill="#B7B7B7"/>
<path d="M484 15.9109V19.0891H474.513V35H471.364V0H474.513V15.9109H484Z" fill="#B7B7B7"/>
<path d="M468.205 28.6338H464.795V35.0002H468.205V28.6338Z" fill="#B7B7B7"/>
<path d="M480.851 22.2671H477.662V25.4452H480.851V22.2671Z" fill="#B7B7B7"/>
<path d="M480.851 28.6338H477.662V35.0002H480.851V28.6338Z" fill="#B7B7B7"/>
</g>
<path d="M507.205 0H503.795V6.36641H507.205V0Z" fill="#B7B7B7"/>
<path d="M488 12.7327H494.338V9.54443H491.159H488V12.7327Z" fill="#B7B7B7"/>
<path d="M488 28.6338V31.8119H494.338V28.6338H491.159H488Z" fill="#B7B7B7"/>
<path d="M519.851 0H516.662V12.7226H519.851V0Z" fill="#B7B7B7"/>
<path d="M500.646 35H497.487V25.4555H491.159V22.2672H497.487V19.0891H488V15.9109H497.487V6.36642H491.159V3.1883H497.487V0H500.646V35Z" fill="#B7B7B7"/>
<path d="M507.215 9.54443H503.795V25.4452H507.215V9.54443Z" fill="#B7B7B7"/>
<path d="M523 15.9109V19.0891H513.513V35H510.364V0H513.513V15.9109H523Z" fill="#B7B7B7"/>
<path d="M507.205 28.6338H503.795V35.0002H507.205V28.6338Z" fill="#B7B7B7"/>
<path d="M519.851 22.2671H516.662V25.4452H519.851V22.2671Z" fill="#B7B7B7"/>
<path d="M519.851 28.6338H516.662V35.0002H519.851V28.6338Z" fill="#B7B7B7"/>
<g opacity="0.7">
<path d="M546.205 0H542.795V6.36641H546.205V0Z" fill="#B7B7B7"/>
<path d="M527 12.7327H533.338V9.54443H530.159H527V12.7327Z" fill="#B7B7B7"/>
<path d="M527 28.6338V31.8119H533.338V28.6338H530.159H527Z" fill="#B7B7B7"/>
<path d="M558.851 0H555.662V12.7226H558.851V0Z" fill="#B7B7B7"/>
<path d="M539.646 35H536.487V25.4555H530.159V22.2672H536.487V19.0891H527V15.9109H536.487V6.36642H530.159V3.1883H536.487V0H539.646V35Z" fill="#B7B7B7"/>
<path d="M546.215 9.54443H542.795V25.4452H546.215V9.54443Z" fill="#B7B7B7"/>
<path d="M562 15.9109V19.0891H552.513V35H549.364V0H552.513V15.9109H562Z" fill="#B7B7B7"/>
<path d="M546.205 28.6338H542.795V35.0002H546.205V28.6338Z" fill="#B7B7B7"/>
<path d="M558.851 22.2671H555.662V25.4452H558.851V22.2671Z" fill="#B7B7B7"/>
<path d="M558.851 28.6338H555.662V35.0002H558.851V28.6338Z" fill="#B7B7B7"/>
</g>
<path d="M585.205 0H581.795V6.36641H585.205V0Z" fill="#B7B7B7"/>
<path d="M566 12.7327H572.338V9.54443H569.159H566V12.7327Z" fill="#B7B7B7"/>
<path d="M566 28.6338V31.8119H572.338V28.6338H569.159H566Z" fill="#B7B7B7"/>
<path d="M597.851 0H594.662V12.7226H597.851V0Z" fill="#B7B7B7"/>
<path d="M578.646 35H575.487V25.4555H569.159V22.2672H575.487V19.0891H566V15.9109H575.487V6.36642H569.159V3.1883H575.487V0H578.646V35Z" fill="#B7B7B7"/>
<path d="M585.215 9.54443H581.795V25.4452H585.215V9.54443Z" fill="#B7B7B7"/>
<path d="M601 15.9109V19.0891H591.513V35H588.364V0H591.513V15.9109H601Z" fill="#B7B7B7"/>
<path d="M585.205 28.6338H581.795V35.0002H585.205V28.6338Z" fill="#B7B7B7"/>
<path d="M597.851 22.2671H594.662V25.4452H597.851V22.2671Z" fill="#B7B7B7"/>
<path d="M597.851 28.6338H594.662V35.0002H597.851V28.6338Z" fill="#B7B7B7"/>
<g opacity="0.7">
<path d="M624.205 0H620.795V6.36641H624.205V0Z" fill="#B7B7B7"/>
<path d="M605 12.7327H611.338V9.54443H608.159H605V12.7327Z" fill="#B7B7B7"/>
<path d="M605 28.6338V31.8119H611.338V28.6338H608.159H605Z" fill="#B7B7B7"/>
<path d="M636.851 0H633.662V12.7226H636.851V0Z" fill="#B7B7B7"/>
<path d="M617.646 35H614.487V25.4555H608.159V22.2672H614.487V19.0891H605V15.9109H614.487V6.36642H608.159V3.1883H614.487V0H617.646V35Z" fill="#B7B7B7"/>
<path d="M624.215 9.54443H620.795V25.4452H624.215V9.54443Z" fill="#B7B7B7"/>
<path d="M640 15.9109V19.0891H630.513V35H627.364V0H630.513V15.9109H640Z" fill="#B7B7B7"/>
<path d="M624.205 28.6338H620.795V35.0002H624.205V28.6338Z" fill="#B7B7B7"/>
<path d="M636.851 22.2671H633.662V25.4452H636.851V22.2671Z" fill="#B7B7B7"/>
<path d="M636.851 28.6338H633.662V35.0002H636.851V28.6338Z" fill="#B7B7B7"/>
</g>
<path d="M663.205 0H659.795V6.36641H663.205V0Z" fill="#B7B7B7"/>
<path d="M644 12.7327H650.338V9.54443H647.159H644V12.7327Z" fill="#B7B7B7"/>
<path d="M644 28.6338V31.8119H650.338V28.6338H647.159H644Z" fill="#B7B7B7"/>
<path d="M675.851 0H672.662V12.7226H675.851V0Z" fill="#B7B7B7"/>
<path d="M656.646 35H653.487V25.4555H647.159V22.2672H653.487V19.0891H644V15.9109H653.487V6.36642H647.159V3.1883H653.487V0H656.646V35Z" fill="#B7B7B7"/>
<path d="M663.215 9.54443H659.795V25.4452H663.215V9.54443Z" fill="#B7B7B7"/>
<path d="M679 15.9109V19.0891H669.513V35H666.364V0H669.513V15.9109H679Z" fill="#B7B7B7"/>
<path d="M663.205 28.6338H659.795V35.0002H663.205V28.6338Z" fill="#B7B7B7"/>
<path d="M675.851 22.2671H672.662V25.4452H675.851V22.2671Z" fill="#B7B7B7"/>
<path d="M675.851 28.6338H672.662V35.0002H675.851V28.6338Z" fill="#B7B7B7"/>
<g opacity="0.7">
<path d="M702.205 0H698.795V6.36641H702.205V0Z" fill="#B7B7B7"/>
<path d="M683 12.7327H689.338V9.54443H686.159H683V12.7327Z" fill="#B7B7B7"/>
<path d="M683 28.6338V31.8119H689.338V28.6338H686.159H683Z" fill="#B7B7B7"/>
<path d="M714.851 0H711.662V12.7226H714.851V0Z" fill="#B7B7B7"/>
<path d="M695.646 35H692.487V25.4555H686.159V22.2672H692.487V19.0891H683V15.9109H692.487V6.36642H686.159V3.1883H692.487V0H695.646V35Z" fill="#B7B7B7"/>
<path d="M702.215 9.54443H698.795V25.4452H702.215V9.54443Z" fill="#B7B7B7"/>
<path d="M718 15.9109V19.0891H708.513V35H705.364V0H708.513V15.9109H718Z" fill="#B7B7B7"/>
<path d="M702.205 28.6338H698.795V35.0002H702.205V28.6338Z" fill="#B7B7B7"/>
<path d="M714.851 22.2671H711.662V25.4452H714.851V22.2671Z" fill="#B7B7B7"/>
<path d="M714.851 28.6338H711.662V35.0002H714.851V28.6338Z" fill="#B7B7B7"/>
</g>
<path d="M741.205 0H737.795V6.36641H741.205V0Z" fill="#B7B7B7"/>
<path d="M722 12.7327H728.338V9.54443H725.159H722V12.7327Z" fill="#B7B7B7"/>
<path d="M722 28.6338V31.8119H728.338V28.6338H725.159H722Z" fill="#B7B7B7"/>
<path d="M753.851 0H750.662V12.7226H753.851V0Z" fill="#B7B7B7"/>
<path d="M734.646 35H731.487V25.4555H725.159V22.2672H731.487V19.0891H722V15.9109H731.487V6.36642H725.159V3.1883H731.487V0H734.646V35Z" fill="#B7B7B7"/>
<path d="M741.215 9.54443H737.795V25.4452H741.215V9.54443Z" fill="#B7B7B7"/>
<path d="M757 15.9109V19.0891H747.513V35H744.364V0H747.513V15.9109H757Z" fill="#B7B7B7"/>
<path d="M741.205 28.6338H737.795V35.0002H741.205V28.6338Z" fill="#B7B7B7"/>
<path d="M753.851 22.2671H750.662V25.4452H753.851V22.2671Z" fill="#B7B7B7"/>
<path d="M753.851 28.6338H750.662V35.0002H753.851V28.6338Z" fill="#B7B7B7"/>
<g opacity="0.7">
<path d="M780.205 0H776.795V6.36641H780.205V0Z" fill="#B7B7B7"/>
<path d="M761 12.7327H767.338V9.54443H764.159H761V12.7327Z" fill="#B7B7B7"/>
<path d="M761 28.6338V31.8119H767.338V28.6338H764.159H761Z" fill="#B7B7B7"/>
<path d="M792.851 0H789.662V12.7226H792.851V0Z" fill="#B7B7B7"/>
<path d="M773.646 35H770.487V25.4555H764.159V22.2672H770.487V19.0891H761V15.9109H770.487V6.36642H764.159V3.1883H770.487V0H773.646V35Z" fill="#B7B7B7"/>
<path d="M780.215 9.54443H776.795V25.4452H780.215V9.54443Z" fill="#B7B7B7"/>
<path d="M796 15.9109V19.0891H786.513V35H783.364V0H786.513V15.9109H796Z" fill="#B7B7B7"/>
<path d="M780.205 28.6338H776.795V35.0002H780.205V28.6338Z" fill="#B7B7B7"/>
<path d="M792.851 22.2671H789.662V25.4452H792.851V22.2671Z" fill="#B7B7B7"/>
<path d="M792.851 28.6338H789.662V35.0002H792.851V28.6338Z" fill="#B7B7B7"/>
</g>
<path d="M819.205 0H815.795V6.36641H819.205V0Z" fill="#B7B7B7"/>
<path d="M800 12.7327H806.338V9.54443H803.159H800V12.7327Z" fill="#B7B7B7"/>
<path d="M800 28.6338V31.8119H806.338V28.6338H803.159H800Z" fill="#B7B7B7"/>
<path d="M831.851 0H828.662V12.7226H831.851V0Z" fill="#B7B7B7"/>
<path d="M812.646 35H809.487V25.4555H803.159V22.2672H809.487V19.0891H800V15.9109H809.487V6.36642H803.159V3.1883H809.487V0H812.646V35Z" fill="#B7B7B7"/>
<path d="M819.215 9.54443H815.795V25.4452H819.215V9.54443Z" fill="#B7B7B7"/>
<path d="M835 15.9109V19.0891H825.513V35H822.364V0H825.513V15.9109H835Z" fill="#B7B7B7"/>
<path d="M819.205 28.6338H815.795V35.0002H819.205V28.6338Z" fill="#B7B7B7"/>
<path d="M831.851 22.2671H828.662V25.4452H831.851V22.2671Z" fill="#B7B7B7"/>
<path d="M831.851 28.6338H828.662V35.0002H831.851V28.6338Z" fill="#B7B7B7"/>
<g opacity="0.7">
<path d="M858.205 0H854.795V6.36641H858.205V0Z" fill="#B7B7B7"/>
<path d="M839 12.7327H845.338V9.54443H842.159H839V12.7327Z" fill="#B7B7B7"/>
<path d="M839 28.6338V31.8119H845.338V28.6338H842.159H839Z" fill="#B7B7B7"/>
<path d="M870.851 0H867.662V12.7226H870.851V0Z" fill="#B7B7B7"/>
<path d="M851.646 35H848.487V25.4555H842.159V22.2672H848.487V19.0891H839V15.9109H848.487V6.36642H842.159V3.1883H848.487V0H851.646V35Z" fill="#B7B7B7"/>
<path d="M858.215 9.54443H854.795V25.4452H858.215V9.54443Z" fill="#B7B7B7"/>
<path d="M874 15.9109V19.0891H864.513V35H861.364V0H864.513V15.9109H874Z" fill="#B7B7B7"/>
<path d="M858.205 28.6338H854.795V35.0002H858.205V28.6338Z" fill="#B7B7B7"/>
<path d="M870.851 22.2671H867.662V25.4452H870.851V22.2671Z" fill="#B7B7B7"/>
<path d="M870.851 28.6338H867.662V35.0002H870.851V28.6338Z" fill="#B7B7B7"/>
</g>
<path d="M897.205 0H893.795V6.36641H897.205V0Z" fill="#B7B7B7"/>
<path d="M878 12.7327H884.338V9.54443H881.159H878V12.7327Z" fill="#B7B7B7"/>
<path d="M878 28.6338V31.8119H884.338V28.6338H881.159H878Z" fill="#B7B7B7"/>
<path d="M909.851 0H906.662V12.7226H909.851V0Z" fill="#B7B7B7"/>
<path d="M890.646 35H887.487V25.4555H881.159V22.2672H887.487V19.0891H878V15.9109H887.487V6.36642H881.159V3.1883H887.487V0H890.646V35Z" fill="#B7B7B7"/>
<path d="M897.215 9.54443H893.795V25.4452H897.215V9.54443Z" fill="#B7B7B7"/>
<path d="M913 15.9109V19.0891H903.513V35H900.364V0H903.513V15.9109H913Z" fill="#B7B7B7"/>
<path d="M897.205 28.6338H893.795V35.0002H897.205V28.6338Z" fill="#B7B7B7"/>
<path d="M909.851 22.2671H906.662V25.4452H909.851V22.2671Z" fill="#B7B7B7"/>
<path d="M909.851 28.6338H906.662V35.0002H909.851V28.6338Z" fill="#B7B7B7"/>
<g opacity="0.7">
<path d="M936.205 0H932.795V6.36641H936.205V0Z" fill="#B7B7B7"/>
<path d="M917 12.7327H923.338V9.54443H920.159H917V12.7327Z" fill="#B7B7B7"/>
<path d="M917 28.6338V31.8119H923.338V28.6338H920.159H917Z" fill="#B7B7B7"/>
<path d="M948.851 0H945.662V12.7226H948.851V0Z" fill="#B7B7B7"/>
<path d="M929.646 35H926.487V25.4555H920.159V22.2672H926.487V19.0891H917V15.9109H926.487V6.36642H920.159V3.1883H926.487V0H929.646V35Z" fill="#B7B7B7"/>
<path d="M936.215 9.54443H932.795V25.4452H936.215V9.54443Z" fill="#B7B7B7"/>
<path d="M952 15.9109V19.0891H942.513V35H939.364V0H942.513V15.9109H952Z" fill="#B7B7B7"/>
<path d="M936.205 28.6338H932.795V35.0002H936.205V28.6338Z" fill="#B7B7B7"/>
<path d="M948.851 22.2671H945.662V25.4452H948.851V22.2671Z" fill="#B7B7B7"/>
<path d="M948.851 28.6338H945.662V35.0002H948.851V28.6338Z" fill="#B7B7B7"/>
</g>
<path d="M975.205 0H971.795V6.36641H975.205V0Z" fill="#B7B7B7"/>
<path d="M956 12.7327H962.338V9.54443H959.159H956V12.7327Z" fill="#B7B7B7"/>
<path d="M956 28.6338V31.8119H962.338V28.6338H959.159H956Z" fill="#B7B7B7"/>
<path d="M987.851 0H984.662V12.7226H987.851V0Z" fill="#B7B7B7"/>
<path d="M968.646 35H965.487V25.4555H959.159V22.2672H965.487V19.0891H956V15.9109H965.487V6.36642H959.159V3.1883H965.487V0H968.646V35Z" fill="#B7B7B7"/>
<path d="M975.215 9.54443H971.795V25.4452H975.215V9.54443Z" fill="#B7B7B7"/>
<path d="M991 15.9109V19.0891H981.513V35H978.364V0H981.513V15.9109H991Z" fill="#B7B7B7"/>
<path d="M975.205 28.6338H971.795V35.0002H975.205V28.6338Z" fill="#B7B7B7"/>
<path d="M987.851 22.2671H984.662V25.4452H987.851V22.2671Z" fill="#B7B7B7"/>
<path d="M987.851 28.6338H984.662V35.0002H987.851V28.6338Z" fill="#B7B7B7"/>
<g opacity="0.7">
<path d="M1014.21 0H1010.79V6.36641H1014.21V0Z" fill="#B7B7B7"/>
<path d="M995 12.7327H1001.34V9.54443H998.159H995V12.7327Z" fill="#B7B7B7"/>
<path d="M995 28.6338V31.8119H1001.34V28.6338H998.159H995Z" fill="#B7B7B7"/>
<path d="M1026.85 0H1023.66V12.7226H1026.85V0Z" fill="#B7B7B7"/>
<path d="M1007.65 35H1004.49V25.4555H998.159V22.2672H1004.49V19.0891H995V15.9109H1004.49V6.36642H998.159V3.1883H1004.49V0H1007.65V35Z" fill="#B7B7B7"/>
<path d="M1014.22 9.54443H1010.79V25.4452H1014.22V9.54443Z" fill="#B7B7B7"/>
<path d="M1030 15.9109V19.0891H1020.51V35H1017.36V0H1020.51V15.9109H1030Z" fill="#B7B7B7"/>
<path d="M1014.21 28.6338H1010.79V35.0002H1014.21V28.6338Z" fill="#B7B7B7"/>
<path d="M1026.85 22.2671H1023.66V25.4452H1026.85V22.2671Z" fill="#B7B7B7"/>
<path d="M1026.85 28.6338H1023.66V35.0002H1026.85V28.6338Z" fill="#B7B7B7"/>
</g>
<path d="M1053.21 0H1049.79V6.36641H1053.21V0Z" fill="#B7B7B7"/>
<path d="M1034 12.7327H1040.34V9.54443H1037.16H1034V12.7327Z" fill="#B7B7B7"/>
<path d="M1034 28.6338V31.8119H1040.34V28.6338H1037.16H1034Z" fill="#B7B7B7"/>
<path d="M1065.85 0H1062.66V12.7226H1065.85V0Z" fill="#B7B7B7"/>
<path d="M1046.65 35H1043.49V25.4555H1037.16V22.2672H1043.49V19.0891H1034V15.9109H1043.49V6.36642H1037.16V3.1883H1043.49V0H1046.65V35Z" fill="#B7B7B7"/>
<path d="M1053.22 9.54443H1049.79V25.4452H1053.22V9.54443Z" fill="#B7B7B7"/>
<path d="M1069 15.9109V19.0891H1059.51V35H1056.36V0H1059.51V15.9109H1069Z" fill="#B7B7B7"/>
<path d="M1053.21 28.6338H1049.79V35.0002H1053.21V28.6338Z" fill="#B7B7B7"/>
<path d="M1065.85 22.2671H1062.66V25.4452H1065.85V22.2671Z" fill="#B7B7B7"/>
<path d="M1065.85 28.6338H1062.66V35.0002H1065.85V28.6338Z" fill="#B7B7B7"/>
<g opacity="0.7">
<path d="M1092.21 0H1088.79V6.36641H1092.21V0Z" fill="#B7B7B7"/>
<path d="M1073 12.7327H1079.34V9.54443H1076.16H1073V12.7327Z" fill="#B7B7B7"/>
<path d="M1073 28.6338V31.8119H1079.34V28.6338H1076.16H1073Z" fill="#B7B7B7"/>
<path d="M1104.85 0H1101.66V12.7226H1104.85V0Z" fill="#B7B7B7"/>
<path d="M1085.65 35H1082.49V25.4555H1076.16V22.2672H1082.49V19.0891H1073V15.9109H1082.49V6.36642H1076.16V3.1883H1082.49V0H1085.65V35Z" fill="#B7B7B7"/>
<path d="M1092.22 9.54443H1088.79V25.4452H1092.22V9.54443Z" fill="#B7B7B7"/>
<path d="M1108 15.9109V19.0891H1098.51V35H1095.36V0H1098.51V15.9109H1108Z" fill="#B7B7B7"/>
<path d="M1092.21 28.6338H1088.79V35.0002H1092.21V28.6338Z" fill="#B7B7B7"/>
<path d="M1104.85 22.2671H1101.66V25.4452H1104.85V22.2671Z" fill="#B7B7B7"/>
<path d="M1104.85 28.6338H1101.66V35.0002H1104.85V28.6338Z" fill="#B7B7B7"/>
</g>
<path d="M1131.21 0H1127.79V6.36641H1131.21V0Z" fill="#B7B7B7"/>
<path d="M1112 12.7327H1118.34V9.54443H1115.16H1112V12.7327Z" fill="#B7B7B7"/>
<path d="M1112 28.6338V31.8119H1118.34V28.6338H1115.16H1112Z" fill="#B7B7B7"/>
<path d="M1143.85 0H1140.66V12.7226H1143.85V0Z" fill="#B7B7B7"/>
<path d="M1124.65 35H1121.49V25.4555H1115.16V22.2672H1121.49V19.0891H1112V15.9109H1121.49V6.36642H1115.16V3.1883H1121.49V0H1124.65V35Z" fill="#B7B7B7"/>
<path d="M1131.22 9.54443H1127.79V25.4452H1131.22V9.54443Z" fill="#B7B7B7"/>
<path d="M1147 15.9109V19.0891H1137.51V35H1134.36V0H1137.51V15.9109H1147Z" fill="#B7B7B7"/>
<path d="M1131.21 28.6338H1127.79V35.0002H1131.21V28.6338Z" fill="#B7B7B7"/>
<path d="M1143.85 22.2671H1140.66V25.4452H1143.85V22.2671Z" fill="#B7B7B7"/>
<path d="M1143.85 28.6338H1140.66V35.0002H1143.85V28.6338Z" fill="#B7B7B7"/>
<g opacity="0.7">
<path d="M1170.21 0H1166.79V6.36641H1170.21V0Z" fill="#B7B7B7"/>
<path d="M1151 12.7327H1157.34V9.54443H1154.16H1151V12.7327Z" fill="#B7B7B7"/>
<path d="M1151 28.6338V31.8119H1157.34V28.6338H1154.16H1151Z" fill="#B7B7B7"/>
<path d="M1182.85 0H1179.66V12.7226H1182.85V0Z" fill="#B7B7B7"/>
<path d="M1163.65 35H1160.49V25.4555H1154.16V22.2672H1160.49V19.0891H1151V15.9109H1160.49V6.36642H1154.16V3.1883H1160.49V0H1163.65V35Z" fill="#B7B7B7"/>
<path d="M1170.22 9.54443H1166.79V25.4452H1170.22V9.54443Z" fill="#B7B7B7"/>
<path d="M1186 15.9109V19.0891H1176.51V35H1173.36V0H1176.51V15.9109H1186Z" fill="#B7B7B7"/>
<path d="M1170.21 28.6338H1166.79V35.0002H1170.21V28.6338Z" fill="#B7B7B7"/>
<path d="M1182.85 22.2671H1179.66V25.4452H1182.85V22.2671Z" fill="#B7B7B7"/>
<path d="M1182.85 28.6338H1179.66V35.0002H1182.85V28.6338Z" fill="#B7B7B7"/>
</g>
<path d="M1209.21 0H1205.79V6.36641H1209.21V0Z" fill="#B7B7B7"/>
<path d="M1190 12.7327H1196.34V9.54443H1193.16H1190V12.7327Z" fill="#B7B7B7"/>
<path d="M1190 28.6338V31.8119H1196.34V28.6338H1193.16H1190Z" fill="#B7B7B7"/>
<path d="M1221.85 0H1218.66V12.7226H1221.85V0Z" fill="#B7B7B7"/>
<path d="M1202.65 35H1199.49V25.4555H1193.16V22.2672H1199.49V19.0891H1190V15.9109H1199.49V6.36642H1193.16V3.1883H1199.49V0H1202.65V35Z" fill="#B7B7B7"/>
<path d="M1209.22 9.54443H1205.79V25.4452H1209.22V9.54443Z" fill="#B7B7B7"/>
<path d="M1225 15.9109V19.0891H1215.51V35H1212.36V0H1215.51V15.9109H1225Z" fill="#B7B7B7"/>
<path d="M1209.21 28.6338H1205.79V35.0002H1209.21V28.6338Z" fill="#B7B7B7"/>
<path d="M1221.85 22.2671H1218.66V25.4452H1221.85V22.2671Z" fill="#B7B7B7"/>
<path d="M1221.85 28.6338H1218.66V35.0002H1221.85V28.6338Z" fill="#B7B7B7"/>
<g opacity="0.7">
<path d="M1248.21 0H1244.79V6.36641H1248.21V0Z" fill="#B7B7B7"/>
<path d="M1229 12.7327H1235.34V9.54443H1232.16H1229V12.7327Z" fill="#B7B7B7"/>
<path d="M1229 28.6338V31.8119H1235.34V28.6338H1232.16H1229Z" fill="#B7B7B7"/>
<path d="M1260.85 0H1257.66V12.7226H1260.85V0Z" fill="#B7B7B7"/>
<path d="M1241.65 35H1238.49V25.4555H1232.16V22.2672H1238.49V19.0891H1229V15.9109H1238.49V6.36642H1232.16V3.1883H1238.49V0H1241.65V35Z" fill="#B7B7B7"/>
<path d="M1248.22 9.54443H1244.79V25.4452H1248.22V9.54443Z" fill="#B7B7B7"/>
<path d="M1264 15.9109V19.0891H1254.51V35H1251.36V0H1254.51V15.9109H1264Z" fill="#B7B7B7"/>
<path d="M1248.21 28.6338H1244.79V35.0002H1248.21V28.6338Z" fill="#B7B7B7"/>
<path d="M1260.85 22.2671H1257.66V25.4452H1260.85V22.2671Z" fill="#B7B7B7"/>
<path d="M1260.85 28.6338H1257.66V35.0002H1260.85V28.6338Z" fill="#B7B7B7"/>
</g>
<path d="M1287.21 0H1283.79V6.36641H1287.21V0Z" fill="#B7B7B7"/>
<path d="M1268 12.7327H1274.34V9.54443H1271.16H1268V12.7327Z" fill="#B7B7B7"/>
<path d="M1268 28.6338V31.8119H1274.34V28.6338H1271.16H1268Z" fill="#B7B7B7"/>
<path d="M1299.85 0H1296.66V12.7226H1299.85V0Z" fill="#B7B7B7"/>
<path d="M1280.65 35H1277.49V25.4555H1271.16V22.2672H1277.49V19.0891H1268V15.9109H1277.49V6.36642H1271.16V3.1883H1277.49V0H1280.65V35Z" fill="#B7B7B7"/>
<path d="M1287.22 9.54443H1283.79V25.4452H1287.22V9.54443Z" fill="#B7B7B7"/>
<path d="M1303 15.9109V19.0891H1293.51V35H1290.36V0H1293.51V15.9109H1303Z" fill="#B7B7B7"/>
<path d="M1287.21 28.6338H1283.79V35.0002H1287.21V28.6338Z" fill="#B7B7B7"/>
<path d="M1299.85 22.2671H1296.66V25.4452H1299.85V22.2671Z" fill="#B7B7B7"/>
<path d="M1299.85 28.6338H1296.66V35.0002H1299.85V28.6338Z" fill="#B7B7B7"/>
<g opacity="0.7">
<path d="M1326.21 0H1322.79V6.36641H1326.21V0Z" fill="#B7B7B7"/>
<path d="M1307 12.7327H1313.34V9.54443H1310.16H1307V12.7327Z" fill="#B7B7B7"/>
<path d="M1307 28.6338V31.8119H1313.34V28.6338H1310.16H1307Z" fill="#B7B7B7"/>
<path d="M1338.85 0H1335.66V12.7226H1338.85V0Z" fill="#B7B7B7"/>
<path d="M1319.65 35H1316.49V25.4555H1310.16V22.2672H1316.49V19.0891H1307V15.9109H1316.49V6.36642H1310.16V3.1883H1316.49V0H1319.65V35Z" fill="#B7B7B7"/>
<path d="M1326.22 9.54443H1322.79V25.4452H1326.22V9.54443Z" fill="#B7B7B7"/>
<path d="M1342 15.9109V19.0891H1332.51V35H1329.36V0H1332.51V15.9109H1342Z" fill="#B7B7B7"/>
<path d="M1326.21 28.6338H1322.79V35.0002H1326.21V28.6338Z" fill="#B7B7B7"/>
<path d="M1338.85 22.2671H1335.66V25.4452H1338.85V22.2671Z" fill="#B7B7B7"/>
<path d="M1338.85 28.6338H1335.66V35.0002H1338.85V28.6338Z" fill="#B7B7B7"/>
</g>
<path d="M1365.21 0H1361.79V6.36641H1365.21V0Z" fill="#B7B7B7"/>
<path d="M1346 12.7327H1352.34V9.54443H1349.16H1346V12.7327Z" fill="#B7B7B7"/>
<path d="M1346 28.6338V31.8119H1352.34V28.6338H1349.16H1346Z" fill="#B7B7B7"/>
<path d="M1377.85 0H1374.66V12.7226H1377.85V0Z" fill="#B7B7B7"/>
<path d="M1358.65 35H1355.49V25.4555H1349.16V22.2672H1355.49V19.0891H1346V15.9109H1355.49V6.36642H1349.16V3.1883H1355.49V0H1358.65V35Z" fill="#B7B7B7"/>
<path d="M1365.22 9.54443H1361.79V25.4452H1365.22V9.54443Z" fill="#B7B7B7"/>
<path d="M1381 15.9109V19.0891H1371.51V35H1368.36V0H1371.51V15.9109H1381Z" fill="#B7B7B7"/>
<path d="M1365.21 28.6338H1361.79V35.0002H1365.21V28.6338Z" fill="#B7B7B7"/>
<path d="M1377.85 22.2671H1374.66V25.4452H1377.85V22.2671Z" fill="#B7B7B7"/>
<path d="M1377.85 28.6338H1374.66V35.0002H1377.85V28.6338Z" fill="#B7B7B7"/>
<g opacity="0.7">
<path d="M1404.21 0H1400.79V6.36641H1404.21V0Z" fill="#B7B7B7"/>
<path d="M1385 12.7327H1391.34V9.54443H1388.16H1385V12.7327Z" fill="#B7B7B7"/>
<path d="M1385 28.6338V31.8119H1391.34V28.6338H1388.16H1385Z" fill="#B7B7B7"/>
<path d="M1416.85 0H1413.66V12.7226H1416.85V0Z" fill="#B7B7B7"/>
<path d="M1397.65 35H1394.49V25.4555H1388.16V22.2672H1394.49V19.0891H1385V15.9109H1394.49V6.36642H1388.16V3.1883H1394.49V0H1397.65V35Z" fill="#B7B7B7"/>
<path d="M1404.22 9.54443H1400.79V25.4452H1404.22V9.54443Z" fill="#B7B7B7"/>
<path d="M1420 15.9109V19.0891H1410.51V35H1407.36V0H1410.51V15.9109H1420Z" fill="#B7B7B7"/>
<path d="M1404.21 28.6338H1400.79V35.0002H1404.21V28.6338Z" fill="#B7B7B7"/>
<path d="M1416.85 22.2671H1413.66V25.4452H1416.85V22.2671Z" fill="#B7B7B7"/>
<path d="M1416.85 28.6338H1413.66V35.0002H1416.85V28.6338Z" fill="#B7B7B7"/>
</g>
<path d="M1443.21 0H1439.79V6.36641H1443.21V0Z" fill="#B7B7B7"/>
<path d="M1424 12.7327H1430.34V9.54443H1427.16H1424V12.7327Z" fill="#B7B7B7"/>
<path d="M1424 28.6338V31.8119H1430.34V28.6338H1427.16H1424Z" fill="#B7B7B7"/>
<path d="M1436.65 35H1433.49V25.4555H1427.16V22.2672H1433.49V19.0891H1424V15.9109H1433.49V6.36642H1427.16V3.1883H1433.49V0H1436.65V35Z" fill="#B7B7B7"/>
<path d="M1443.22 9.54443H1439.79V25.4452H1443.22V9.54443Z" fill="#B7B7B7"/>
<path d="M1443.21 28.6338H1439.79V35.0002H1443.21V28.6338Z" fill="#B7B7B7"/>
</svg>
