<?xml version="1.0" encoding="UTF-8"?>
<svg id="Layer_1" data-name="Layer 1" xmlns="http://www.w3.org/2000/svg" viewBox="0 0 200.63 87.87">
  <defs>
    <style>
      .cls-1 {
        fill: #de2926;
      }

      .cls-2 {
        fill: #231f20;
      }
    </style>
  </defs>
  <g>
    <rect class="cls-1" x="54.17" y="4.53" width="7.65" height="14.12"/>
    <polygon class="cls-1" points="18.79 32.78 32.99 32.78 32.99 25.72 25.85 25.72 18.79 25.72 18.79 32.78"/>
    <polygon class="cls-1" points="18.79 68.08 18.79 75.14 32.99 75.14 32.99 68.08 25.85 68.08 18.79 68.08"/>
    <rect class="cls-1" x="83.01" y="4.53" width="7.13" height="28.24"/>
    <polygon class="cls-1" points="47.11 82.2 40.05 82.2 40.05 61.03 25.85 61.03 25.85 53.96 40.05 53.96 40.05 46.9 18.79 46.9 18.79 39.84 40.05 39.84 40.05 18.66 25.85 18.66 25.85 11.59 40.05 11.59 40.05 4.53 47.11 4.53 47.11 82.2"/>
    <rect class="cls-1" x="54.17" y="25.72" width="7.66" height="35.31"/>
    <polygon class="cls-1" points="97.2 39.84 97.2 46.9 75.95 46.9 75.95 82.2 68.89 82.2 68.89 4.53 75.95 4.53 75.95 39.84 97.2 39.84"/>
    <rect class="cls-1" x="54.17" y="68.08" width="7.65" height="14.12"/>
    <rect class="cls-1" x="83.01" y="53.96" width="7.13" height="7.06"/>
    <rect class="cls-1" x="83.01" y="68.08" width="7.13" height="14.12"/>
  </g>
  <g>
    <path class="cls-2" d="m110.34,19.63v.73c.93.17,1.62.75,1.62,1.64,0,1.43-1.49,2.07-4.46,1.89v-1.64c1.68.15,2.51-.04,2.51-.52,0-.37-.5-.58-1.51-.62v-1.49c-2.26-.27-3.92-1.58-4.6-3.5l2.05-1.2c.58,1.64,1.78,2.45,3.61,2.45s2.7-.77,2.7-1.91c0-.6-.25-1.04-.73-1.35s-1.35-.66-2.57-1.04c-1.39-.41-2.07-.68-3.05-1.33-.93-.66-1.41-1.62-1.41-2.92s.46-2.3,1.37-3.05c.91-.77,2.01-1.14,3.3-1.14,2.32,0,4.13,1.2,5.06,3.19l-2.01,1.16c-.6-1.35-1.62-2.03-3.05-2.03s-2.28.7-2.28,1.8.7,1.58,2.92,2.26c.56.19.95.31,1.2.41.27.08.62.23,1.08.41.48.19.83.39,1.06.58.77.6,1.6,1.6,1.49,2.99,0,2.38-1.66,3.92-4.29,4.23Z"/>
    <path class="cls-2" d="m116.56,4.89h2.38v9.56c0,1.76,1.04,2.9,3.11,2.9s3.11-1.14,3.11-2.9V4.89h2.38v9.7c0,1.56-.52,2.78-1.53,3.71-1.02.91-2.34,1.37-3.96,1.37s-2.94-.46-3.96-1.37c-1.02-.93-1.53-2.16-1.53-3.71V4.89Z"/>
    <path class="cls-2" d="m135.97,19.63v.73c.93.17,1.62.75,1.62,1.64,0,1.43-1.49,2.07-4.46,1.89v-1.64c1.68.15,2.51-.04,2.51-.52,0-.37-.5-.58-1.51-.62v-1.49c-2.26-.27-3.92-1.58-4.6-3.5l2.05-1.2c.58,1.64,1.78,2.45,3.61,2.45s2.7-.77,2.7-1.91c0-.6-.25-1.04-.73-1.35s-1.35-.66-2.57-1.04c-1.39-.41-2.07-.68-3.05-1.33-.93-.66-1.41-1.62-1.41-2.92s.46-2.3,1.37-3.05c.91-.77,2.01-1.14,3.3-1.14,2.32,0,4.13,1.2,5.06,3.19l-2.01,1.16c-.6-1.35-1.62-2.03-3.05-2.03s-2.28.7-2.28,1.8.7,1.58,2.92,2.26c.56.19.95.31,1.2.41.27.08.62.23,1.08.41.48.19.83.39,1.06.58.77.6,1.6,1.6,1.49,2.99,0,2.38-1.66,3.92-4.29,4.23Z"/>
    <path class="cls-2" d="m151.58,19.4l-1.02-2.92h-6.18l-1.02,2.92h-2.59l5.27-14.51h2.86l5.25,14.51h-2.57Zm-6.41-5.16h4.6l-2.3-6.55-2.3,6.55Z"/>
    <path class="cls-2" d="m117.08,38.1l1.53,1.58-1.68,1.51-1.6-1.64c-1.22.7-2.51,1.06-3.88,1.06-2.09,0-3.86-.73-5.33-2.18-1.47-1.47-2.2-3.26-2.2-5.35s.73-3.88,2.2-5.33c1.47-1.47,3.23-2.2,5.33-2.2s3.86.73,5.33,2.2c1.47,1.45,2.2,3.23,2.2,5.33,0,1.93-.64,3.61-1.91,5.02Zm-3.44-.29l-2.65-2.72,1.68-1.51,2.78,2.84c.77-.95,1.16-2.07,1.16-3.34,0-1.47-.5-2.72-1.49-3.71s-2.22-1.49-3.65-1.49-2.65.5-3.65,1.49-1.49,2.24-1.49,3.71.5,2.72,1.49,3.71,2.22,1.49,3.65,1.49c.77,0,1.49-.17,2.18-.48Z"/>
    <path class="cls-2" d="m123.65,38.06h5.91v2.28h-8.29v-14.51h2.38v12.23Z"/>
    <path class="cls-2" d="m137.19,40.61c-2.09,0-3.88-.73-5.35-2.18-1.45-1.47-2.18-3.26-2.18-5.35s.73-3.88,2.18-5.33c1.47-1.47,3.26-2.2,5.35-2.2s3.88.73,5.33,2.2c1.47,1.45,2.2,3.23,2.2,5.33s-.73,3.88-2.2,5.35c-1.45,1.45-3.23,2.18-5.33,2.18Zm0-2.32c1.45,0,2.67-.5,3.65-1.47,1-1,1.49-2.24,1.49-3.73s-.5-2.74-1.49-3.71c-.97-1-2.2-1.49-3.65-1.49s-2.67.5-3.67,1.49c-.97.97-1.47,2.22-1.47,3.71s.5,2.74,1.47,3.73c1,.97,2.22,1.47,3.67,1.47Z"/>
    <path class="cls-2" d="m157.47,36.19c0,1.18-.41,2.18-1.26,2.97-.85.79-1.87,1.18-3.09,1.18h-6.22v-14.51h5.76c1.18,0,2.2.39,3.01,1.16.83.77,1.24,1.72,1.24,2.86,0,1.26-.5,2.24-1.47,2.97,1.26.66,2.03,1.87,2.03,3.38Zm-8.19-8.13v3.82h3.38c1.06,0,1.87-.83,1.87-1.91s-.81-1.91-1.87-1.91h-3.38Zm3.84,10.04c1.1,0,1.97-.89,1.97-2.03s-.87-2.03-1.97-2.03h-3.84v4.06h3.84Z"/>
    <path class="cls-2" d="m169,40.34l-1.02-2.92h-6.18l-1.02,2.92h-2.59l5.27-14.51h2.86l5.25,14.51h-2.57Zm-6.41-5.16h4.6l-2.3-6.55-2.3,6.55Z"/>
    <path class="cls-2" d="m175.51,38.06h5.91v2.28h-8.29v-14.51h2.38v12.23Z"/>
    <path class="cls-2" d="m118.55,46.77v14.51h-2.38v-10.35l-4.42,7.3h-.29l-4.42-7.32v10.37h-2.38v-14.51h2.57l4.37,7.26,4.4-7.26h2.55Z"/>
    <path class="cls-2" d="m123.84,59h6.43v2.28h-8.81v-14.51h8.71v2.28h-6.32v3.77h5.81v2.26h-5.81v3.92Z"/>
    <path class="cls-2" d="m138.14,46.77c1.99,0,3.65.71,4.96,2.09,1.33,1.39,1.99,3.11,1.99,5.16s-.66,3.75-1.99,5.16c-1.31,1.39-2.96,2.09-4.96,2.09h-5.7v-14.51h5.7Zm0,12.23c1.37,0,2.49-.48,3.34-1.41.87-.93,1.31-2.14,1.31-3.57s-.44-2.63-1.31-3.57c-.85-.93-1.97-1.41-3.34-1.41h-3.32v9.95h3.32Z"/>
    <path class="cls-2" d="m148.47,42.66c1.24-.06,1.97,1.64,1.02,2.49-.81.91-2.55.21-2.47-1.04,0-.77.68-1.45,1.45-1.45Zm-1.2,4.11h2.38v14.51h-2.38v-14.51Z"/>
    <path class="cls-2" d="m162.01,61.28l-1.02-2.92h-6.18l-1.02,2.92h-2.59l5.27-14.51h2.86l5.25,14.51h-2.57Zm-6.41-5.16h4.6l-2.3-6.55-2.3,6.55Z"/>
    <path class="cls-2" d="m113.16,69.99h-6.12v4.06h5.91v2.28h-5.91v5.89h-2.38v-14.51h8.5v2.28Z"/>
    <path class="cls-2" d="m122.2,82.49c-2.09,0-3.88-.73-5.35-2.18-1.45-1.47-2.18-3.25-2.18-5.35s.73-3.88,2.18-5.33c1.47-1.47,3.26-2.2,5.35-2.2s3.88.73,5.33,2.2c1.47,1.45,2.2,3.23,2.2,5.33s-.73,3.88-2.2,5.35c-1.45,1.45-3.23,2.18-5.33,2.18Zm0-2.32c1.45,0,2.67-.5,3.65-1.47,1-1,1.49-2.24,1.49-3.73s-.5-2.74-1.49-3.71c-.97-1-2.2-1.49-3.65-1.49s-2.67.5-3.67,1.49c-.97.97-1.47,2.22-1.47,3.71s.5,2.74,1.47,3.73c1,.97,2.22,1.47,3.67,1.47Z"/>
    <path class="cls-2" d="m140.18,82.22l-3.07-5.29h-2.82v5.29h-2.38v-14.51h5.81c1.31,0,2.4.46,3.3,1.37.91.89,1.37,1.99,1.37,3.3,0,1.85-1.16,3.52-2.88,4.21l3.3,5.64h-2.61Zm-5.89-12.27v4.85h3.42c1.26,0,2.28-1.08,2.28-2.43s-1.02-2.43-2.28-2.43h-3.42Z"/>
    <path class="cls-2" d="m144.34,67.7h2.38v9.56c0,1.76,1.04,2.9,3.11,2.9s3.11-1.14,3.11-2.9v-9.56h2.38v9.7c0,1.56-.52,2.78-1.53,3.71-1.02.91-2.34,1.37-3.96,1.37s-2.94-.46-3.96-1.37c-1.02-.93-1.53-2.16-1.53-3.71v-9.7Z"/>
    <path class="cls-2" d="m171.96,67.7v14.51h-2.38v-10.35l-4.42,7.3h-.29l-4.42-7.32v10.37h-2.38v-14.51h2.57l4.37,7.26,4.4-7.26h2.55Z"/>
  </g>
</svg>