<svg width="78" height="78" viewBox="0 0 78 78" fill="none" xmlns="http://www.w3.org/2000/svg">
<g id="Group">
<path id="Vector" d="M42.8049 0H35.1943V14.1799H42.8049V0Z" fill="#DE2926"/>
<path id="Vector_2" d="M0 28.3651H14.1202V21.2751H7.02308H0V28.3651Z" fill="#DE2926"/>
<path id="Vector_3" d="M0 63.8201V70.91H14.1202V63.8201H7.02308H0Z" fill="#DE2926"/>
<path id="Vector_4" d="M70.9722 0H63.875V28.3651H70.9722V0Z" fill="#DE2926"/>
<path id="Vector_5" d="M28.1717 78H21.1486V56.7355H7.02308V49.6349H21.1486V42.545H0V35.455H21.1486V14.1906H7.02308V7.08994H21.1486V0H28.1717V78Z" fill="#DE2926"/>
<path id="Vector_6" d="M42.8102 21.2751H35.1943V56.7302H42.8102V21.2751Z" fill="#DE2926"/>
<path id="Vector_7" d="M77.9998 35.455V42.545H56.8512V78H49.8281V0H56.8512V35.455H77.9998Z" fill="#DE2926"/>
<path id="Vector_8" d="M42.8049 63.8201H35.1943V77.9999H42.8049V63.8201Z" fill="#DE2926"/>
<path id="Vector_9" d="M70.9722 49.6403H63.875V56.7302H70.9722V49.6403Z" fill="#DE2926"/>
<path id="Vector_10" d="M70.9722 63.8201H63.875V77.9999H70.9722V63.8201Z" fill="#DE2926"/>
</g>
</svg>
