<svg width="201" height="88" viewBox="0 0 201 88" fill="white" xmlns="http://www.w3.org/2000/svg">
<path d="M97.3633 18.3767L99.746 16.983C100.42 18.8824 101.814 19.8227 103.931 19.8227C106.047 19.8227 107.059 18.9311 107.059 17.6087C107.059 16.9118 106.77 16.4061 106.216 16.0464C105.661 15.6868 104.654 15.2784 103.234 14.8439C101.623 14.3643 100.829 14.0496 99.6973 13.3041C98.6146 12.5361 98.0601 11.4272 98.0601 9.91369C98.0601 8.40017 98.5883 7.24255 99.6486 6.37714C100.709 5.48552 101.983 5.05469 103.474 5.05469C106.167 5.05469 108.261 6.44832 109.344 8.75982L107.01 10.1085C106.313 8.54628 105.133 7.75206 103.474 7.75206C101.814 7.75206 100.829 8.56876 100.829 9.84626C100.829 11.1238 101.645 11.6745 104.219 12.4687C104.867 12.686 105.324 12.8283 105.613 12.9482C105.927 13.0456 106.336 13.2142 106.864 13.4278C107.418 13.645 107.827 13.8848 108.093 14.1021C108.984 14.7989 109.943 15.9528 109.824 17.5675C109.824 19.081 109.269 20.3098 108.164 21.2014C107.081 22.093 105.639 22.5239 103.859 22.5239C100.611 22.5239 98.2549 20.9616 97.3633 18.3879V18.3767Z" fill="#fff"/>
<path d="M122.066 5.39844H124.831V22.2382H122.066V14.9478H114.851V22.2382H112.086V5.39844H114.851V12.3029H122.066V5.39844Z" fill="#fff"/>
<path d="M128.035 5.39844H130.8V16.4876C130.8 18.5331 132.003 19.8556 134.408 19.8556C136.813 19.8556 138.015 18.5331 138.015 16.4876V5.39844H140.78V16.6562C140.78 18.4619 140.177 19.878 139.001 20.9607C137.821 22.0209 136.281 22.5492 134.408 22.5492C132.535 22.5492 130.991 22.0209 129.815 20.9607C128.635 19.878 128.035 18.4582 128.035 16.6562V5.39844Z" fill="#fff"/>
<path d="M143.066 18.3767L145.449 16.983C146.123 18.8824 147.517 19.8227 149.634 19.8227C151.75 19.8227 152.762 18.9311 152.762 17.6087C152.762 16.9118 152.473 16.4061 151.919 16.0464C151.365 15.6868 150.357 15.2784 148.937 14.8439C147.326 14.3643 146.532 14.0496 145.4 13.3041C144.318 12.5361 143.763 11.4272 143.763 9.91369C143.763 8.40017 144.291 7.24255 145.352 6.37714C146.412 5.48552 147.686 5.05469 149.177 5.05469C151.87 5.05469 153.965 6.44832 155.047 8.75982L152.713 10.1085C152.016 8.54628 150.836 7.75206 149.177 7.75206C147.517 7.75206 146.532 8.56876 146.532 9.84626C146.532 11.1238 147.348 11.6745 149.922 12.4687C150.57 12.686 151.027 12.8283 151.316 12.9482C151.631 13.0456 152.039 13.2142 152.567 13.4278C153.122 13.645 153.53 13.8848 153.796 14.1021C154.688 14.7989 155.647 15.9528 155.527 17.5675C155.527 19.081 154.972 20.3098 153.867 21.2014C152.784 22.093 151.342 22.5239 149.563 22.5239C146.314 22.5239 143.958 20.9616 143.066 18.3879V18.3767Z" fill="#fff"/>
<path d="M167.769 5.39844H170.534V22.2382H167.769V14.9478H160.554V22.2382H157.789V5.39844H160.554V12.3029H167.769V5.39844Z" fill="#fff"/>
<path d="M184.879 22.2382L183.699 18.8478H176.532L175.352 22.2382H172.344L178.454 5.39844H181.773L187.857 22.2382H184.875H184.879ZM177.446 16.2478H182.785L180.114 8.64651L177.443 16.2478H177.446Z" fill="#fff"/>
<path d="M114.628 33.4636V34.6175C114.628 36.9252 113.86 38.8284 112.343 40.2932C110.826 41.7618 108.829 42.481 106.379 42.481C103.783 42.481 101.64 41.6381 99.9313 39.956C98.2492 38.2739 97.4062 36.2022 97.4062 33.7483C97.4062 31.2945 98.2492 29.249 99.9313 27.5669C101.64 25.8585 103.73 25.0156 106.233 25.0156C109.383 25.0156 112.126 26.5778 113.568 29.0092L111.185 30.3804C110.294 28.7695 108.42 27.7092 106.229 27.7092C104.472 27.7092 103.007 28.2862 101.876 29.44C100.744 30.5939 100.167 32.0363 100.167 33.7708C100.167 35.5054 100.744 36.9477 101.876 38.0754C103.03 39.2068 104.547 39.7837 106.397 39.7837C109.38 39.7837 111.328 38.2664 111.833 35.9362H106.206V33.4599H114.624L114.628 33.4636Z" fill="#fff"/>
<path d="M119.921 39.4917H126.777V42.1367H117.156V25.2969H119.921V39.488V39.4917Z" fill="#fff"/>
<path d="M135.631 42.481C133.2 42.481 131.132 41.6381 129.423 39.956C127.741 38.2477 126.898 36.1797 126.898 33.7483C126.898 31.317 127.741 29.249 129.423 27.5669C131.132 25.8585 133.2 25.0156 135.631 25.0156C138.063 25.0156 140.131 25.8585 141.813 27.5669C143.521 29.249 144.364 31.3207 144.364 33.7483C144.364 36.176 143.521 38.2477 141.813 39.956C140.131 41.6381 138.059 42.481 135.631 42.481ZM135.631 39.7874C137.313 39.7874 138.733 39.2105 139.865 38.0791C141.018 36.9252 141.595 35.4791 141.595 33.7483C141.595 32.0175 141.018 30.5714 139.865 29.4438C138.733 28.2899 137.313 27.713 135.631 27.713C133.949 27.713 132.529 28.2899 131.372 29.4438C130.214 30.5977 129.663 32.0175 129.663 33.7483C129.663 35.4791 130.24 36.9252 131.372 38.0791C132.525 39.2105 133.945 39.7874 135.631 39.7874Z" fill="#fff"/>
<path d="M159.16 37.3264C159.16 38.6975 158.68 39.8514 157.691 40.7655C156.702 41.6796 155.526 42.1367 154.106 42.1367H146.891V25.2969H153.578C154.949 25.2969 156.129 25.7539 157.066 26.6456C158.029 27.5372 158.508 28.6424 158.508 29.9648C158.508 31.4334 157.931 32.561 156.8 33.4039C158.268 34.1719 159.156 35.5693 159.156 37.3264H159.16ZM149.659 27.8968V32.3213H153.582C154.807 32.3213 155.747 31.3584 155.747 30.1072C155.747 28.8559 154.81 27.8931 153.582 27.8931H149.659V27.8968ZM154.11 39.5405C155.384 39.5405 156.395 38.5065 156.395 37.184C156.395 35.8615 155.384 34.8276 154.11 34.8276H149.659V39.5442H154.11V39.5405Z" fill="#fff"/>
<path d="M172.531 42.1445L171.351 38.754H164.184L163.004 42.1445H159.996L166.106 25.3047H169.426L175.51 42.1445H172.528H172.531ZM165.099 36.1541H170.437L167.766 28.5528L165.095 36.1541H165.099Z" fill="#fff"/>
<path d="M180.089 39.4917H186.945V42.1367H177.324V25.2969H180.089V39.488V39.4917Z" fill="#fff"/>
<path d="M114.371 45.2616V62.1013H111.606V50.0981L106.481 58.5648H106.144L101.019 50.0718V62.0976H98.2539V45.2578H101.236L106.312 53.6758L111.411 45.2578H114.371V45.2616Z" fill="#fff"/>
<path d="M120.499 59.4605H127.954V62.1054H117.73V45.2656H127.834V47.9105H120.499V52.29H127.235V54.9124H120.499V59.4605Z" fill="#fff"/>
<path d="M137.097 45.2656C139.404 45.2656 141.33 46.0823 142.847 47.697C144.387 49.3079 145.155 51.3047 145.155 53.6874C145.155 56.0701 144.387 58.0406 142.847 59.6778C141.33 61.2887 139.408 62.1092 137.097 62.1092H130.48V45.2694H137.097V45.2656ZM137.097 59.4568C138.685 59.4568 139.981 58.9023 140.97 57.8196C141.982 56.7369 142.487 55.3433 142.487 53.6836C142.487 52.024 141.982 50.6304 140.97 49.5477C139.985 48.465 138.685 47.9105 137.097 47.9105H133.249V59.4568H137.097Z" fill="#fff"/>
<path d="M147.691 45.2656H150.456V62.1054H147.691V45.2656Z" fill="#fff"/>
<path d="M164.789 62.1054L163.609 58.715H156.442L155.262 62.1054H152.254L158.364 45.2656H161.683L167.768 62.1054H164.785H164.789ZM157.356 56.115H162.695L160.024 48.5137L157.353 56.115H157.356Z" fill="#fff"/>
<path d="M108.118 67.8793H101.023V72.5959H107.878V75.2409H101.023V82.0742H98.2578V65.2344H108.122V67.8793H108.118Z" fill="#fff"/>
<path d="M118.596 82.3795C116.165 82.3795 114.097 81.5366 112.388 79.8545C110.706 78.1461 109.863 76.0781 109.863 73.6468C109.863 71.2154 110.706 69.1474 112.388 67.4653C114.097 65.757 116.165 64.9141 118.596 64.9141C121.027 64.9141 123.095 65.757 124.777 67.4653C126.486 69.1474 127.329 71.2191 127.329 73.6468C127.329 76.0744 126.486 78.1461 124.777 79.8545C123.095 81.5366 121.024 82.3795 118.596 82.3795ZM118.596 79.6859C120.278 79.6859 121.698 79.1089 122.829 77.9775C123.961 76.8461 124.56 75.3776 124.56 73.6468C124.56 71.916 123.983 70.4699 122.829 69.3422C121.698 68.1884 120.278 67.6114 118.596 67.6114C116.914 67.6114 115.494 68.1884 114.336 69.3422C113.205 70.4736 112.628 71.916 112.628 73.6468C112.628 75.3776 113.205 76.8237 114.336 77.9775C115.49 79.1089 116.91 79.6859 118.596 79.6859Z" fill="#fff"/>
<path d="M139.458 82.0663L135.899 75.9336H132.628V82.0663H129.863V65.2266H136.599C138.116 65.2266 139.39 65.7548 140.424 66.815C141.484 67.849 142.013 69.1227 142.013 70.64C142.013 72.7792 140.664 74.731 138.667 75.5215L142.492 82.0663H139.461H139.458ZM132.628 67.8265V73.4573H136.595C138.064 73.4573 139.24 72.206 139.24 70.6438C139.24 69.0815 138.06 67.8303 136.595 67.8303H132.628V67.8265Z" fill="#fff"/>
<path d="M144.293 65.2344H147.058V76.3235C147.058 78.369 148.26 79.6915 150.665 79.6915C153.071 79.6915 154.273 78.369 154.273 76.3235V65.2344H157.038V76.4921C157.038 78.2979 156.435 79.714 155.259 80.7967C154.078 81.8569 152.539 82.3851 150.665 82.3851C148.792 82.3851 147.249 81.8569 146.072 80.7967C144.892 79.714 144.293 78.2941 144.293 76.4921V65.2344Z" fill="#fff"/>
<path d="M176.339 65.2303V82.0701H173.575V70.0668L168.45 78.5335H168.112L162.987 70.0406V82.0663H160.223V65.2266H163.205L168.281 73.6446L173.38 65.2266H176.339V65.2303Z" fill="#fff"/>
<path d="M56.025 5H48.375V19.1199H56.025V5Z" fill="#fff"/>
<path d="M13 33.2493H27.1949V26.1875H20.0619H13V33.2493Z" fill="#fff"/>
<path d="M13 68.5547V75.6165H27.1949V68.5547H20.0619H13Z" fill="#fff"/>
<path d="M84.344 5H77.2109V33.2399H84.344V5Z" fill="#fff"/>
<path d="M41.315 82.6616H34.2569V61.4873H20.062V54.4179H34.2569V47.3598H13.0039V40.3017H34.2569V19.1274H20.062V12.0581H34.2569V5H41.315V82.6616Z" fill="#fff"/>
<path d="M56.0288 26.1875H48.375V61.4892H56.0288V26.1875Z" fill="#fff"/>
<path d="M91.4009 40.3017V47.3598H70.1479V82.6616H63.0898V5H70.1479V40.3017H91.4009Z" fill="#fff"/>
<path d="M56.025 68.5547H48.375V82.6746H56.025V68.5547Z" fill="#fff"/>
<path d="M84.344 54.4141H77.2109V61.4759H84.344V54.4141Z" fill="#fff"/>
<path d="M84.344 68.5547H77.2109V82.6746H84.344V68.5547Z" fill="#fff"/>
</svg>
